<svg xmlns="http://www.w3.org/2000/svg" viewBox="0 0 512 512">
  <rect width="512" height="512" rx="64" fill="#2563eb"/>
  <g fill="white">
    <rect x="60" y="120" width="120" height="280" rx="12"/>
    <rect x="196" y="120" width="120" height="280" rx="12"/>
    <rect x="332" y="120" width="120" height="280" rx="12"/>
    <rect x="80" y="150" width="80" height="20" rx="4" fill="#2563eb"/>
    <rect x="80" y="190" width="80" height="40" rx="4" fill="#e5e7eb"/>
    <rect x="80" y="250" width="80" height="40" rx="4" fill="#e5e7eb"/>
    <rect x="216" y="150" width="80" height="20" rx="4" fill="#2563eb"/>
    <rect x="216" y="190" width="80" height="40" rx="4" fill="#e5e7eb"/>
    <rect x="352" y="150" width="80" height="20" rx="4" fill="#2563eb"/>
    <rect x="352" y="190" width="80" height="40" rx="4" fill="#e5e7eb"/>
    <rect x="352" y="250" width="80" height="40" rx="4" fill="#e5e7eb"/>
    <rect x="352" y="310" width="80" height="40" rx="4" fill="#e5e7eb"/>
  </g>
</svg>
